<svg xmlns="http://www.w3.org/2000/svg" viewBox="0 0 760 160" role="img" aria-labelledby="title desc">
  <title id="title">CORU</title>
  <desc id="desc">Logotipo CORU</desc>
  <g transform="translate(0 0) scale(.22)">
    <g fill="none" stroke="#39F79B" stroke-width="30" stroke-linecap="round">
      <line x1="109" y1="81" x2="128" y2="130"/><line x1="42" y1="143" x2="86" y2="174"/><line x1="26" y1="236" x2="70" y2="231"/>
    </g>
    <g><path d="M235 49 224 54 212 65 159 168 144 178 131 191 120 209 115 225 114 242 113 243 113 360 114 361 114 370 117 382 124 399 132 411 142 422 152 430 162 436 174 441 223 466 225 466 227 468 229 468 272 490 291 497 310 501 333 502 334 501 344 501 360 498 380 491 496 434 510 424 519 415 528 403 535 389 541 365 541 236 540 235 539 224 536 216 536 209 537 208 537 200 539 192 539 184 540 183 541 168 542 167 543 152 545 143 545 125 543 121 543 118 537 107 524 95 509 89 492 89 482 92 409 127 375 110 356 103 336 99 312 99 308 100 305 97 284 64 277 57 267 51 258 48 249 47 248 48Z" fill="#000"/><path d="M243 82 238 87 186 189 181 195 168 202 159 210 154 217 149 228 147 238 147 362 151 377 160 392 174 404 271 452 273 452 290 461 306 466 318 467 319 468 343 467 356 464 369 459 467 410 469 410 485 401 496 390 503 378 507 364 507 236 502 221 502 209 503 208 507 168 508 167 508 160 509 159 509 152 510 151 510 144 512 135 509 126 505 123 501 122 493 124 416 161 405 162 366 143 345 135 336 133 312 133 306 135 299 135 292 133 283 125 259 87 254 82 251 81Z" fill="#fff"/><path d="M325 279 316 280 310 283 299 293 289 312 286 321 283 337 283 368 288 390 298 409 306 417 314 421 329 420 336 416 344 408 353 392 357 380 360 365 360 355 361 354 361 342 360 341 359 325 352 303 346 293 337 284 332 281Z" fill="#000"/><path d="M180 245 176 247 168 255 162 267 157 287 156 307 157 308 157 318 160 333 167 350 177 362 182 365 190 366 196 364 204 357 212 342 215 332 216 320 217 319 217 297 213 276 203 255 196 248 190 245Z" fill="#000"/><path d="m202 365 2 10 6 16v3l6 16 1 6 3-2 18-21 2 2 11 27 35-26-10-13-18 13-15-34-18 21-2-2-6-20Z" fill="#000"/></g>
  </g>
  <text x="168" y="104" fill="#000" font-family="Inter, Arial, sans-serif" font-size="88" font-weight="800" letter-spacing="-2">CORU</text>
</svg>
